<?xml version="1.0" encoding="UTF-8"?>
<svg version="1.1" viewBox="0 0 1600 1600" width="100" height="100" xmlns="http://www.w3.org/2000/svg">
<path transform="translate(844,342)" d="m0 0h9l-1 7-7 10-10 13-11 21-7 19-5 20-3 6-3 2-33 7-18 6-23 11-16 9-16 11-17 13-15 13-13 14-9 13-9 15-9 19-7 19-9 32-4 26-1 12-1 71-3 24-4 14-7 14-12 19-6 12-6 19-2 11 1 15 4 15 5 13 6 11 10 13 12 12 14 9 15 8 15 4 7 1h13l21-5 13-5 12-7 21-14 15-5 15-2 16-1 61-1 26-2 25-4 30-9 18-7 21-10 12-8 10-8 20-18 9-10 10-11 12-17 7-11 13-27 7-23 6-26 2-9 4-4 25-6 14-5 19-9 15-10 13-10 14-12 23-23 7-8 2-3h2l2-4 9-11 9-10 10-13 11-14 7-9 18-22 13-16 12-14 8-10 11-14 11-13 6-8h3v14l-1 26-1 495-5 2-32 1h-614l-445 1-39-1-3-1-2-9-1-514 1-21 2-14 5-16 7-16 11-17 12-14 12-9 16-10 12-5 12-3 8-1 509-1z" fill="#444C50"/>
<path transform="translate(514,1075)" d="m0 0h700l118 1 4 3 1 3v25l-2 19-7 24-8 16-7 10-12 14-12 10-16 9-16 5-19 3-19 1-94 1h-211l1 2v88l10 1 45 2 19 1 11 2 9 5 8 7 4 8 2 9v18l-2 10-6 9-6 5-8 3-105 1h-342l-20-1-10-3-7-8-5-10-1-4v-20l4-11 6-8 10-9 4-2 7-1 23-1 41-1 12-1 1-90-326-2-15-2-11-4-15-8-12-9-9-8-7-8-9-13-8-15-8-25-3-19-1-10v-14l3-6 1-1z" fill="#444C50"/>
<path transform="translate(1404)" d="m0 0h44l13 8 11 6 12 9 11 12 6 12 2 10 1 17v25l-1 14-4 13-9 14-11 14-9 11-12 14-11 13-13 16-14 19-11 14-12 14-11 14-9 10-9 11-11 13-9 11-9 12-13 16-8 10-11 14h-2l-2 4-12 14-10 12-8 10-11 13-9 12-12 15-4-2-6-7-7-6-7-8-10-9-54-54-7-8-30-30-8-7-10-10-8-7-16-15-7-7-1-5 7-8 8-7 14-10 19-14 21-16 14-12 8-7 10-9 10-8 13-11 20-15 17-14 11-9 12-11 22-18 14-11 17-13 17-14 14-12 10-9 11-9 12-9 13-9 17-10 5-4h2z" fill="#444C50"/>
<path transform="translate(825,519)" d="m0 0h23l22 3 19 5 23 11 18 12 13 10 15 15 11 16 8 15 7 18 4 16 3 22v28l-2 16-4 15-7 20-9 16-9 12-14 15-8 7-13 9-19 10-24 7-26 5-12 1-54 1-24 1-18 2-23 5-23 8-23 12-11 6-8 2h-10l-2-2v-6l10-20 7-10 6-12 7-25 7-34 2-26v-65l4-20 9-27 8-19 8-14 10-13 11-11 11-8 13-8 19-10 17-6 21-4z" fill="#444C50"/>
<path transform="translate(999,323)" d="m0 0 4 1 5 4 11 14 10 9 8 7 11 11 8 7 7 7 7 8 11 12 23 23 8 7 17 17 3 2v2l3 1 7 8 10 10 7 8 11 10 9 7 4 5 1 3v7l-6 10-8 8-9 12-11 13-8 10-9 10-15 15-13 10-21 13-9 5-6-1-6-13-10-26-8-16-10-18-12-17-11-13-19-19-11-9-13-9-24-14-17-8-28-10-5-3-3-4 2-7 12-20 9-12 7-8 15-15 11-9 14-11 8-7 9-7 10-9z" fill="#444C50"/>
<path transform="translate(224,385)" d="m0 0h2l1 7-1 7-1 11 2 3v7l-2 4 2 7v17h-2l1 8 1 1-1 7h-2l1 9 1 6-2 4v9l2 5-1 5-2 2v7l2 7-2 3 1 7 1 6-1 5 1 6 1 9-3 8 4 6-1 10-2 19h-3l4 5v7h-4l1 7 1 5-4 2 2 7 2 1-2 12 1 5h2l-2 4-3 1v7l-1 4 3 4-1 5-1 3 1 11-2 5 1 6v11l1 6-1 4 3 5-4 8-1 9 1 10v3l2 9 1 1v8h2l1 7-3 8h-2v5l-1 2 1 12 1 4-1 3 2 6-1 9 4 4-2 3h-2v7l1 7 1 9 2 2-1 7h-3l1 5 4 5 1 4-3 4 1 7v4l-2 1v4l3 3v8l-3 4 1 5 4 5v4l-5 1-1 6 6 8-3 9 2 7 1 2-2 9-1 4 2 4v8l3 7h-28l-3-1-2-9-1-514 1-21 2-14 5-16 7-16 11-17z" fill="#3E4247"/>
<path transform="translate(199,1076)" d="m0 0h12l16 1v33l1 10-1 10 2 5v5l-1 1v7l1 4v5l-4 1v2l4 4 1 19-4-2-8-10-9-16-6-16-4-13-3-19-1-10v-14l3-6z" fill="#3E4247"/>
<path transform="translate(1493,35)" d="m0 0h2l6 12 2 10 1 17v25l-1 14-4 13-7 11-3 1v-7l-1-8 1-8-1-10 1-6 1-10-1-7v-16l1-10v-12-4z" fill="#3E4247"/>
<path transform="translate(523,1381)" d="m0 0h32l3 1 7-1 7 1h35l3 1h11l6-1 3 1 3-1 8 1h15l11 1 4 4v1l-20 1h-97l-20-1-10-3-2-4z" fill="#515459"/>
<path transform="translate(1500,47)" d="m0 0 2 4 1 6 1 17v25l-1 14-2 8h-1z" fill="#FDFDFD"/>
<path transform="translate(675,1385)" d="m0 0 4 1v1l157 1v1h-165l1-3z" fill="#3E4247"/>
<path transform="translate(1469,117)" d="m0 0 3 3v6l-2 3h-2v-9z" fill="#3E4247"/>
<path transform="translate(1481,23)" d="m0 0 4 1 2 4-3 3-3-3z" fill="#3E4348"/>
<path transform="translate(1475,18)" d="m0 0h2v7l-2 6-2-4v-6z" fill="#3E4247"/>
</svg>
